<?xml version="1.0" encoding="UTF-8"?>
<svg id="Layer_2" data-name="Layer 2" xmlns="http://www.w3.org/2000/svg" viewBox="0 0 91.79 91.79">
  <defs>
    <style>
      .cls-1 {
        fill: #92743f;
      }

      .cls-2 {
        fill: #fff;
      }

      .cls-3 {
        fill: #ddb05a;
      }
    </style>
  </defs>
  <g id="Layer_1-2" data-name="Layer 1">
    <g>
      <path class="cls-3" d="M91.79,45.89c0,2.72-.24,5.39-.69,7.98-3.78,21.54-22.58,37.91-45.2,37.91-.69,0-1.39-.02-2.07-.05C19.44,90.66,0,70.55,0,45.89S20.55,0,45.89,0s45.89,20.55,45.89,45.89Z"/>
      <path class="cls-1" d="M91.1,53.88c-3.78,21.54-22.58,37.91-45.2,37.91-.69,0-1.39-.02-2.07-.05-10.22-10.22-18.68-18.69-18.74-18.76-1.33-1.15-2.05-2.91-1.85-4.73.45-4.05,1.73-8.09,4.67-9.92,5.41-3.37,10.79-4.8,10.79-4.8.19-.59.4-2.54.51-4.53-.69-.71-1.36-1.45-2.08-2.16-1.16-1.14-1.44-2.69-1.8-4.64-.26-.11-.4-.33-.53-.53,0,0,0,0,0,0-.26-.11-.41-.33-.54-.54,0,0,0,0,0,0-.26-.11-.41-.33-.54-.54-.16-.25-.23-.54-.29-.83-.22-1.04-.44-2.08-.65-3.12-.16-.78-.33-1.58-.22-2.38.05-.37.19-.77.49-.99.31-.22.82-.17.97.18,0,0-.5-4.9-.5-4.49-.42-.46-.75-1.47-.61-2.25.14-.78.39-1.53.51-2.31.13-.86.12-1.74.37-2.57.35-1.17,1.18-2.13,2.02-3.02.6-.63,1.22-1.23,1.89-1.78,1.35-1.09,2.96-1.9,4.68-2.09.55-.06,1.11-.06,1.67-.06.62,0,1.25,0,1.87,0,.62,0,1.25,0,1.87,0,.56,0,1.11,0,1.67.06,1.72.19,3.33,1.01,4.68,2.09.59.47,1.13,1,1.66,1.54.11.11,19.57,19.57,35.33,35.32Z"/>
      <path class="cls-2" d="M65.2,73.9c-3.4,1.39-9.48,3.02-19.31,3.02s-15.92-1.63-19.31-3.02c-2.26-.92-3.63-3.23-3.36-5.66.45-4.05,1.73-8.09,4.67-9.92,5.41-3.37,10.79-4.8,10.79-4.8.19-.59.4-2.54.51-4.53-.69-.71-1.36-1.46-2.08-2.16-1.36-1.34-1.52-3.26-2-5.73-.89.25-1.18-.17-1.42-.53-.16-.25-.23-.54-.29-.83-.22-1.04-.44-2.08-.65-3.12-.16-.78-.33-1.58-.22-2.38.05-.37.19-.77.49-.99.31-.22.82-.17.97.18,0,0-.5-4.9-.5-4.49-.42-.46-.75-1.47-.61-2.25.14-.78.38-1.53.51-2.31.13-.86.12-1.74.37-2.57.35-1.17,1.18-2.13,2.02-3.02.6-.63,1.22-1.23,1.89-1.78,1.35-1.08,2.96-1.9,4.68-2.09.55-.06,1.11-.06,1.67-.06.62,0,1.25,0,1.87,0,.62,0,1.25,0,1.87,0,.56,0,1.11,0,1.67.06,1.72.19,3.33,1.01,4.68,2.09.67.54,1.29,1.15,1.89,1.78.84.88,1.67,1.84,2.02,3.02.25.83.23,1.72.37,2.57.12.78.37,1.54.51,2.31.14.78-.19,1.78-.61,2.25,0-.41-.5,4.49-.5,4.49.15-.35.67-.4.97-.18.31.22.44.61.49.99.11.79-.05,1.59-.22,2.38-.22,1.04-.44,2.08-.65,3.12-.06.29-.12.59-.29.83-.24.36-.52.79-1.42.53-.49,2.47-.64,4.39-2,5.73-.72.7-1.4,1.45-2.08,2.16.11,2,.32,3.94.51,4.53,0,0,5.37,1.44,10.79,4.8,2.94,1.83,4.22,5.86,4.67,9.92.27,2.43-1.1,4.73-3.36,5.66Z"/>
    </g>
  </g>
</svg>