<?xml version="1.0" encoding="UTF-8"?>
<svg id="Layer_2" data-name="Layer 2" xmlns="http://www.w3.org/2000/svg" viewBox="0 0 306.42 155.14">
  <defs>
    <style>
      .cls-1 {
        fill: #da121a;
      }

      .cls-2 {
        fill: #060656;
      }

      .cls-3 {
        fill: #dfb059;
      }

      .cls-4 {
        fill: #fff;
      }

      .cls-5 {
        fill: #078930;
      }
    </style>
  </defs>
  <g id="Layer_1-2" data-name="Layer 1">
    <g>
      <g>
        <path class="cls-3" d="M114.13,154.19l-.44-4.27c-.06-.08-.58-.28-1.51-.28-.26,0-.5.02-.66.05l-.27.06-.19-.2c-.84-.89-2-2.11-3.01-2.76l-3.78-2.43-.73-2.64-1.4-2.28-4.92-.33-2.26,3.12c-.72.84-1.16,1.59-1.42,2.38l-.16.5-2.55-.94-3.5-1.66c-.7.28-1.35.41-1.98.41-1.14,0-2.17-.44-3.13-1.34l-1.55,1.03-4.86,3.45-3.29-2.57h-.06c-1-.09-2.03-.18-2.54-.6-.46-.37-.65-1.14-.86-2.11l-.06-.28-.23-1.01c-.21.03-.5.1-.78.18-.5.13-1.06.28-1.54.28-.64,0-.95-.28-1.1-.52l-1.21-1.97v-.14c-.01-1.44-.96-2.24-2.97-2.5l-.26-.03-.12-.23c-.83-1.6-2.15-2.83-3.44-3.95l-.18-.16v-.24c.11-1.72-.95-2.45-1.8-3.04-.57-.4-1.16-.8-1-1.48l.63-2.54c.03-.11-.04-.47-.49-1.04-.79-1.01-2.3-2.09-3.38-2.09-.32,0-.55.1-.73.31l-.51.61-1.93-4.24-1.27,1.77-3.23-4.31h-4.16c-.55,0-1.27-.63-1.62-1.08-.27-.35-.37-.68-.3-.96.13-.51.42-1.1.9-2.04l-1.38-2.24c-1.54-.23-2.61-.64-3.26-1.26l-.3-.29.22-.35c1.57-2.43.96-3.89-.71-5.73-1.31-1.44-2.14-1.83-4.11-2.35-1.54-.41-2.94-1.33-4.29-2.22-1.07-.7-2.18-1.43-3.33-1.89-.04-.02-3.43-1.42-2.89-3l.21-.62c.39-1.1.75-2.15.61-2.94-.18-1.01-.93-1.51-1.88-2.16-.84-.57-1.79-1.22-2.5-2.35l-.63-1c-.22.12-.58.38-.76.51l-.59.42-.28-.44c-1.68-2.63-4.06-2.82-6.57-3.03-1.55-.13-3.15-.26-4.61-.98l-.12-.06-.07-.12c-.58-.89-.72-1.89-.43-2.88.33-1.13,1.24-2.18,2.42-2.83-.84-3.44.92-4.34,2.61-5.22,1.46-.75,2.97-1.53,3.72-3.86.7-2.19,1.53-4.19,2.61-6.3.54-1.06.61-2.08.68-3.07.09-1.36.18-2.76,1.74-3.59,1.87-1,2.33-2.42,2.73-3.67.37-1.15.76-2.34,2.29-2.53,1.09-.13,1.93-.6,2.48-1.4.71-1.02.9-2.53.52-4.13l-.12-.49,11.36-2.6c.22-.05.5-.07.83-.07.81,0,2.04.16,2.6.42l.26.12.41,3.52c2.18,1.76,4.6,3.76,5.7,6.53.2.5.37,1,.55,1.51.71,2.07,1.38,4.02,3.61,4.99.6.26,1.65.41,2.82.41s2.26-.15,2.94-.39l.12-.12c1.15-1.12,2.45-2.4,4.09-2.4.43,0,.86.09,1.29.26,1.38.57,2.69.84,4.12.84,1.12,0,2.26-.16,3.45-.33,1.45-.21,3.09-.44,5.07-.44.83,0,1.65.04,2.5.12,1.42.14,1.81,1.76,2.15,3.18.24,1.01.49,2.06,1.02,2.31l11.71-.09c.46,0,1.14-.14,1.31-.25.11-.08.33-.6.44-1.34l.24-1.74c.08-.59.73-.76,1.3-.92.2-.05.48-.13.58-.19l3.9-2.71,6.14.59c.26,0,.75-.14.86-.23.2-.3.17-.76.13-1.34-.09-1.32-.21-3.14,2.84-5.02.24-.15.49-.32.76-.5,1.02-.7,2.29-1.57,3.72-1.57.64,0,1.26.18,1.86.52l.05.03,2.7,2.46c1.84.56,5.02,1.78,6.47,3.76.18.23.33.61.5,1.04.15.38.46,1.16.65,1.26l7.76.11c1.48,0,2.82-2.02,4.37-4.35.95-1.44,1.94-2.93,3.13-4.23,1.18-1.28,1.84-2.02,2.72-3.39,1.94-3.03,4.37-6.08,7.42-9.35.88-.94,1.97-1.69,3.03-2.42.56-.39,1.15-.79,1.69-1.21l-1.69-3.47c-.95-1.95-.64-6.03.03-7.82.09-.25.3-.54.55-.88.19-.26.52-.72.59-.94l-4.95-5.56,8.38-.9,2.07-.31-.11-4.39,7.98.05-1.15,11.17c-.21,2.03.35,3.59.84,4.97.65,1.83,1.27,3.56-.79,5.23l2.12,4.11c.7,1.36,1.09,2.42-.02,4.05l3.05.68c1.58.35,3.52,1.03,4.56,3.17l2.46,5.02c.09.18.69.55,2.35.7l.47.04-.02.48c-.13,3.03-.98,5.89-2.01,9.02l5.47,2.29.7,13.65h-97.74v42.3h104.66l2.79,1.51-.59,2.88,2.54,1.88-.04.29c-.2,1.47-.1,2.49.37,3.76l.7,1.91s.03.08.2.08c.32,0,.83-.16,1.37-.32.75-.23,1.59-.49,2.4-.49.3,0,.58.04.83.11l4.92,1.35-.21.52c-1.31,3.2-.58,7.79.72,10.91l.26.61-7.23.82-.14-.37c-.61-1.64-.59-3.21-.57-4.36.01-.67.02-1.42-.15-1.6-.03-.03-.1-.05-.21-.05-.2,0-.49.07-.86.19-1.45.51-2.94.94-4.38,1.35-2.38.68-4.83,1.39-7.14,2.48l-6.83,6.1c-2.04,1.82-3.99,3.77-5.87,5.67-2.57,2.58-5.23,5.25-8.16,7.61l-.13.11-5.85.15s-3.48.17-3.48.17c-.39,0-.77-.21-1.17-.43-.17-.1-.43-.24-.53-.26-.07.01-.37.18-.55.29-.35.2-.68.38-.99.4l-6.22.36-5.16.78-2.25,2.8-3.2-.02-1.7-2.37-5.45.45c-.25.02-.5.05-.75.09-.44.06-.9.12-1.36.12-.95,0-1.69-.29-2.24-.87-.34-.36-1.13-.74-1.78-.74-.17,0-.39.03-.53.15l-3.4,3.2-5.14-.43Z"/>
        <path class="cls-2" d="M158.87,1.01l6.91.04-1.09,10.62c-.53,5.14,3.61,7.48-.09,10.11l2.31,4.48c.77,1.49,1.03,2.38-.44,4.14l3.81.85c1.84.41,3.36,1.13,4.22,2.9l2.46,5.02c.28.58,1.52.87,2.75.98-.13,3.06-1,5.93-2.13,9.32l5.61,2.35.66,12.81h-97.71v43.3h105.03l2.35,1.27-.58,2.83,2.56,1.89c-.21,1.57-.09,2.67.4,4l.7,1.91c.11.3.35.4.67.4.89,0,2.43-.81,3.77-.81.24,0,.47.03.69.09l4.38,1.2c-1.31,3.21-.7,7.88.72,11.29l-6.18.7c-1.24-3.32.29-6.34-1.4-6.34-.26,0-.59.07-1.02.22-3.87,1.36-7.87,2.09-11.64,3.88l-6.88,6.15c-4.83,4.31-8.96,9.18-14.01,13.26l-5.68.15-3.49.17s-.01,0-.02,0c-.4,0-1.18-.6-1.56-.68-.02,0-.05,0-.07,0-.41,0-1.2.66-1.61.69l-6.22.36-5.4.81-2.22,2.76-2.7-.02-1.72-2.39-5.73.47c-.67.05-1.39.21-2.07.21s-1.35-.15-1.88-.72c-.45-.48-1.38-.89-2.14-.89-.34,0-.65.08-.87.28l-3.24,3.05-4.5-.38-.4-3.86c-.06-.55-1.16-.73-2-.73-.3,0-.58.02-.76.06-.89-.94-2.05-2.16-3.1-2.84l-3.62-2.33-.7-2.52-1.57-2.56-5.45-.37-2.42,3.34c-.67.78-1.19,1.59-1.49,2.52l-2.06-.76-3.66-1.74c-.7.3-1.36.46-2,.46-1.09,0-2.1-.47-3.06-1.48l-1.89,1.25-4.57,3.24-3.11-2.43c-.92-.08-2.05-.15-2.47-.5-.42-.34-.6-1.45-.75-2.12l-.29-1.25c-.03-.12-.14-.17-.31-.17-.55,0-1.68.48-2.44.48-.3,0-.54-.07-.67-.28l-1.14-1.85c-.02-2.15-1.8-2.78-3.41-2.99-.86-1.67-2.22-2.94-3.55-4.1.18-3.15-3.05-3.5-2.82-4.42l.63-2.54c.28-1.14-2.49-3.75-4.35-3.75-.44,0-.82.14-1.11.48l-1.96-4.3-1.38,1.92-2.97-3.96h-4.41c-.43-.01-1.54-.99-1.43-1.41.13-.51.46-1.16.99-2.19l-1.65-2.68c-1.37-.18-2.55-.52-3.22-1.16,1.77-2.74.93-4.48-.76-6.34-1.41-1.54-2.32-1.96-4.35-2.5-2.66-.71-4.9-3.04-7.56-4.09-.95-.38-2.89-1.52-2.6-2.37.46-1.36,1.04-2.72.84-3.81-.4-2.21-3-2.38-4.44-4.68l-.77-1.22c-.03-.05-.08-.07-.15-.07-.31,0-.95.49-1.35.78-2.9-4.52-7.71-2.37-11.38-4.19-1.32-2.05.19-4.28,2.15-5.17-1.75-6.14,4.41-3.56,6.22-9.19.7-2.18,1.51-4.13,2.58-6.22,1.39-2.7-.08-5.23,2.21-6.45,3.85-2.06,2.26-5.83,4.84-6.14,3.12-.38,4.11-3.26,3.43-6.14l10.87-2.49c.19-.04.44-.06.72-.06.84,0,1.95.17,2.39.37l.4,3.44c2.18,1.76,4.63,3.74,5.71,6.45,1.02,2.55,1.42,5.47,4.42,6.78.71.31,1.86.45,3.02.45,1.22,0,2.45-.16,3.21-.46,1.17-1.14,2.42-2.45,3.94-2.45.35,0,.72.07,1.1.23,1.6.66,2.97.88,4.31.88,2.54,0,4.95-.78,8.52-.78.76,0,1.58.04,2.45.12,2.03.2,1.37,4.9,3.12,5.5l11.81-.09c.48,0,1.28-.14,1.57-.32.37-.23.59-1.16.67-1.69l.24-1.75c.06-.43,1.24-.48,1.66-.76l3.76-2.61,5.96.57s.04,0,.06,0c.34,0,1.09-.2,1.23-.41.99-1.46-1.34-3.67,2.85-6.25,1.17-.73,2.6-2,4.21-2,.52,0,1.05.13,1.61.45l2.74,2.5c2.13.64,5.02,1.83,6.32,3.61.4.53.83,2.49,1.49,2.5l7.82.12s.02,0,.03,0c2.71,0,4.64-5.24,7.84-8.74,1.16-1.26,1.85-2.02,2.77-3.46,2.12-3.3,4.66-6.38,7.37-9.28,1.39-1.48,3.34-2.48,4.98-3.83l-1.86-3.83c-.85-1.75-.63-5.61.05-7.43.19-.53,1.5-1.83,1.12-2.25l-4.37-4.91,7.41-.8,2.53-.38-.11-4.32M157.84,0l.03,1.03.09,3.44-1.66.25-7.37.79-1.93.21,1.29,1.45,4.07,4.57c-.12.19-.29.42-.4.57-.27.37-.5.69-.62,1.01-.69,1.84-1.05,6.07,0,8.2l1.51,3.1c-.44.33-.9.64-1.35.95-1.08.74-2.2,1.51-3.11,2.48-3.08,3.29-5.52,6.37-7.48,9.42-.86,1.34-1.47,2.03-2.66,3.32-1.22,1.33-2.26,2.9-3.18,4.29-1.41,2.12-2.74,4.13-3.93,4.13l-7.56-.12c-.14-.24-.31-.68-.42-.94-.19-.47-.35-.87-.57-1.17-1.5-2.05-4.69-3.3-6.61-3.9l-2.57-2.35-.08-.07-.09-.05c-.67-.39-1.38-.59-2.11-.59-1.58,0-2.92.92-4,1.66-.26.18-.5.35-.74.49-3.31,2.04-3.17,4.1-3.07,5.47.03.43.05.74-.02.94-.14.05-.36.1-.46.1l-5.93-.57-.36-.03-.3.21-3.76,2.61s-.26.07-.41.11c-.61.16-1.54.41-1.67,1.33l-.24,1.75c-.07.45-.19.84-.27,1-.19.06-.66.15-.98.15l-11.57.09c-.28-.27-.53-1.33-.67-1.93-.36-1.51-.81-3.39-2.59-3.56-.87-.08-1.7-.13-2.55-.13-2.01,0-3.67.24-5.14.45-1.23.18-2.29.33-3.38.33-1.36,0-2.6-.25-3.92-.8-.49-.2-.99-.3-1.48-.3-1.84,0-3.22,1.35-4.44,2.54l-.04.04c-.63.21-1.63.33-2.67.33s-2.09-.14-2.62-.37c-2.02-.88-2.63-2.65-3.33-4.69-.17-.5-.35-1.03-.56-1.54-1.12-2.82-3.51-4.83-5.69-6.6l-.35-3.03-.07-.56-.51-.23c-.66-.3-1.94-.46-2.81-.46-.37,0-.69.03-.94.09l-10.87,2.49-.98.22.23.98c.35,1.47.18,2.83-.45,3.73-.47.67-1.19,1.07-2.13,1.19-1.84.22-2.32,1.69-2.7,2.87-.39,1.22-.8,2.48-2.49,3.38-1.81.96-1.91,2.58-2.01,4-.06.94-.13,1.91-.62,2.87-1.09,2.13-1.93,4.16-2.64,6.37-.69,2.14-2.04,2.83-3.47,3.57-1.73.89-3.67,1.89-2.95,5.42-1.13.72-1.99,1.79-2.33,2.93-.33,1.13-.16,2.27.49,3.29l.15.23.25.12c1.54.76,3.19.9,4.79,1.03,2.49.21,4.64.38,6.19,2.8l.57.88.86-.61.17-.12c.08-.06.2-.14.31-.22l.36.57c.76,1.21,1.8,1.92,2.64,2.49,1,.68,1.53,1.07,1.66,1.83.12.67-.24,1.7-.59,2.69-.07.21-.14.41-.21.62-.7,2.04,3.02,3.56,3.18,3.62,1.11.44,2.14,1.12,3.24,1.84,1.38.91,2.82,1.85,4.43,2.29,1.89.5,2.63.85,3.87,2.21,1.57,1.73,2.07,2.94.66,5.12l-.45.69.6.57c.69.66,1.77,1.11,3.3,1.36l1.11,1.8c-.42.83-.68,1.39-.81,1.9-.11.44.02.91.39,1.39.27.35,1.16,1.26,2.01,1.26h3.91s2.67,3.57,2.67,3.57l.82,1.09.79-1.11.37-.52,1.24,2.73.66,1.44,1.02-1.22s.11-.13.34-.13c1.27,0,3.26,1.88,3.37,2.56l-.62,2.49c-.25,1.01.59,1.58,1.2,2.01.82.57,1.68,1.16,1.59,2.6l-.03.49.37.32c1.25,1.09,2.53,2.28,3.32,3.8l.24.47.52.07c2.22.29,2.53,1.18,2.54,2.01v.28s.15.24.15.24l1.14,1.85c.21.34.65.75,1.52.75.54,0,1.14-.16,1.67-.3.08-.02.17-.05.27-.07l.13.54.06.27c.22,1.07.44,1.92,1.04,2.4.56.47,1.44.58,2.72.69l2.88,2.25.59.46.61-.43,4.57-3.24,1.21-.8c.97.8,2.03,1.21,3.17,1.21.63,0,1.28-.12,1.96-.37l3.27,1.55.04.02.04.02,2.06.76.98.36.32-.99c.23-.73.65-1.42,1.3-2.18l.03-.03.02-.03,2.1-2.89,4.38.3,1.23,2,.66,2.38.1.37.32.21,3.62,2.33c.96.62,2.09,1.82,2.92,2.69l.38.4.55-.11c.09-.02.29-.04.55-.04.49,0,.85.07,1.04.12l.37,3.57.09.82.83.07,4.5.38.44.04.32-.31,3.24-3.05s0,0,0,0c.02,0,.08-.01.18-.01.5,0,1.16.31,1.42.58.66.69,1.51,1.03,2.61,1.03.49,0,.97-.06,1.43-.12.25-.03.49-.07.73-.09l5.17-.42,1.39,1.93.3.41h.51s2.7.02,2.7.02h.48s.3-.37.3-.37l1.98-2.46,4.97-.75,6.17-.36c.44-.03.83-.25,1.22-.47.09-.05.22-.12.32-.17.09.04.19.1.27.15.44.24.9.49,1.38.49h.07s3.49-.17,3.49-.17l5.66-.15h.34s.26-.22.26-.22c2.95-2.38,5.62-5.06,8.2-7.65,1.88-1.89,3.82-3.84,5.85-5.64l6.77-6.05c2.25-1.05,4.56-1.72,7-2.42,1.45-.42,2.94-.85,4.41-1.36.25-.09.42-.13.53-.15.03.28.03.76.02,1.13-.02,1.19-.05,2.82.6,4.55l.27.73.78-.09,6.18-.7,1.32-.15-.51-1.23c-1.26-3.03-1.97-7.46-.72-10.53l.43-1.04-1.09-.3-4.38-1.2c-.29-.08-.62-.12-.96-.12-.89,0-1.77.27-2.55.51-.37.11-.78.24-1.06.28l-.6-1.64c-.44-1.19-.53-2.14-.35-3.52l.08-.59-.48-.35-2.05-1.51.45-2.2.15-.73-.65-.35-2.35-1.27-.22-.12h-104.28v-41.3h97.76l-.05-1.05-.66-12.81-.03-.63-.58-.24-4.76-1.99c.98-2.99,1.76-5.76,1.89-8.71l.04-.95-.95-.09c-1.28-.11-1.83-.36-1.96-.47l-2.44-4.98c-1.13-2.33-3.21-3.06-4.9-3.44l-2.38-.53c.77-1.53.34-2.68-.32-3.94l-1.94-3.76c1.96-1.81,1.29-3.69.63-5.52-.47-1.33-1.01-2.83-.81-4.75l1.09-10.62.11-1.1h-1.1s-6.91-.05-6.91-.05h-1.03Z"/>
      </g>
      <g>
        <g>
          <path class="cls-4" d="M82.58,79.45v36.85s31.69,0,31.69,0v-5.96s6.1-.03,6.1-.03c-.03.03-.03.06,0,.09l-3.5,3.95-.41.45-1.49,1.71v4.19s-3.36,0-3.36,0v3.58s-3.25,0-3.25,0v3.59s-36.43,0-36.43,0v-40.87s3.27,0,3.27,0v-3.77s3.27,0,3.27,0v-3.78s4.11,0,4.11,0Z"/>
          <polygon class="cls-1" points="78.48 120.71 110.82 120.71 110.81 123.49 76.02 123.49 76.02 84.05 78.47 84.04 78.48 120.71"/>
          <polygon class="cls-5" points="107.54 124.3 107.57 127.09 72.75 127.08 72.74 87.83 75.21 87.83 75.21 124.3 107.54 124.3"/>
          <polygon points="100.37 117.13 102.13 117.14 103.63 117.13 111.29 117.14 112.45 117.13 114.18 117.13 114.17 119.9 79.31 119.89 79.31 80.27 81.78 80.26 81.78 117.11 83.96 117.13 96.61 117.14 97.26 117.13 98.46 117.13 100.37 117.13"/>
        </g>
        <g>
          <g>
            <path class="cls-2" d="M93.65,79.15c1.1,1.07,2.75,1.91,4.74,1.91.84,0,1.63-.29,1.63-.87s-.62-.87-2.07-1.13c-2.42-.44-6.13-1.02-6.13-4.73,0-2.51,2.07-4.79,6.1-4.79,2.4,0,4.56.69,6.24,2.06l-2.38,3.17c-1.28-.98-2.93-1.46-4.1-1.46-1.1,0-1.34.4-1.34.78,0,.58.6.78,2.16,1.04,2.42.42,6.02,1.13,6.02,4.55s-2.4,5.15-6.35,5.15c-3.13,0-5.27-.93-6.83-2.35l2.31-3.33Z"/>
            <path class="cls-2" d="M105.15,79.19c0-3,2.2-5.61,5.97-5.61s5.99,2.62,5.99,5.61-2.2,5.64-5.99,5.64-5.97-2.64-5.97-5.64ZM113.04,79.19c0-1.18-.68-2.09-1.92-2.09s-1.9.91-1.9,2.09.68,2.11,1.9,2.11,1.92-.91,1.92-2.11Z"/>
            <path class="cls-2" d="M125.77,84.56v-1.2c-.62.69-1.79,1.46-3.66,1.46-2.47,0-3.53-1.49-3.53-3.33v-7.66h3.97v5.95c0,1.09.57,1.51,1.54,1.51.88,0,1.34-.47,1.67-.84v-6.61h3.97v10.72h-3.97Z"/>
            <path class="cls-2" d="M132.76,81.46v-4.15h-1.76v-3.46h1.76v-2.93h3.97v2.93h2.16v3.46h-2.16v3c0,.55.35,1,.88,1,.35,0,.71-.11.79-.2l.71,3.02c-.42.38-1.34.71-2.69.71-2.36,0-3.66-1.13-3.66-3.37Z"/>
            <path class="cls-2" d="M147.58,84.56v-5.97c0-1.11-.6-1.49-1.54-1.49s-1.37.47-1.7.84v6.61h-3.97v-14.8h3.97v5.3c.62-.71,1.79-1.49,3.66-1.49,2.47,0,3.55,1.46,3.55,3.33v7.66h-3.97Z"/>
            <path class="cls-2" d="M160.65,79.15c1.1,1.07,2.75,1.91,4.74,1.91.84,0,1.63-.29,1.63-.87s-.62-.87-2.07-1.13c-2.42-.44-6.13-1.02-6.13-4.73,0-2.51,2.07-4.79,6.1-4.79,2.4,0,4.56.69,6.24,2.06l-2.38,3.17c-1.28-.98-2.93-1.46-4.1-1.46-1.1,0-1.34.4-1.34.78,0,.58.6.78,2.16,1.04,2.42.42,6.02,1.13,6.02,4.55s-2.4,5.15-6.35,5.15c-3.13,0-5.27-.93-6.83-2.35l2.31-3.33Z"/>
            <path class="cls-2" d="M180.06,84.56v-1.2c-.62.69-1.79,1.46-3.66,1.46-2.47,0-3.53-1.49-3.53-3.33v-7.66h3.97v5.95c0,1.09.57,1.51,1.54,1.51.88,0,1.34-.47,1.67-.84v-6.61h3.97v10.72h-3.97Z"/>
            <path class="cls-2" d="M193.19,84.56v-1.13c-.9,1.02-1.92,1.4-3,1.4-2.58,0-4.69-1.95-4.69-5.64s2.07-5.61,4.69-5.61c1.08,0,2.16.38,3,1.4v-5.21h3.97v14.8h-3.97ZM193.19,77.82c-.38-.47-1.12-.71-1.65-.71-1.08,0-1.98.75-1.98,2.09s.9,2.11,1.98,2.11c.53,0,1.28-.27,1.65-.73v-2.75Z"/>
            <path class="cls-2" d="M205.51,84.56v-1.02c-.59.75-1.9,1.29-3.22,1.29-1.59,0-3.66-1.09-3.66-3.53,0-2.66,2.07-3.31,3.66-3.31,1.39,0,2.64.44,3.22,1.18v-1.22c0-.75-.68-1.33-1.98-1.33-.99,0-2.12.4-2.95,1.04l-1.34-2.46c1.43-1.15,3.42-1.62,5.02-1.62,2.64,0,5.22.93,5.22,4.5v6.48h-3.97ZM205.51,81.06c-.26-.38-.95-.58-1.56-.58-.66,0-1.39.22-1.39.89s.73.87,1.39.87c.62,0,1.3-.2,1.56-.58v-.6Z"/>
            <path class="cls-2" d="M218.88,84.56v-5.92c0-1.11-.6-1.53-1.54-1.53s-1.37.47-1.7.84v6.61h-3.97v-10.72h3.97v1.22c.62-.71,1.79-1.49,3.66-1.49,2.47,0,3.55,1.51,3.55,3.37v7.61h-3.97Z"/>
            <path class="cls-2" d="M241.97,84.56l-1.9-8.39-1.9,8.39h-4.67l-4.21-14.8h4.98l1.9,9.05,2.23-9.05h3.35l2.23,9.05,1.87-9.05h5l-4.21,14.8h-4.67Z"/>
            <path class="cls-2" d="M250.08,79.19c0-3,2.2-5.61,5.97-5.61s5.99,2.62,5.99,5.61-2.2,5.64-5.99,5.64-5.97-2.64-5.97-5.64ZM257.97,79.19c0-1.18-.68-2.09-1.92-2.09s-1.9.91-1.9,2.09.68,2.11,1.9,2.11,1.92-.91,1.92-2.11Z"/>
            <path class="cls-2" d="M277.12,84.56v-6.26c0-.64-.33-1.2-1.21-1.2s-1.37.53-1.63.84v6.61h-3.97v-6.26c0-.64-.31-1.2-1.21-1.2s-1.34.53-1.61.84v6.61h-3.97v-10.72h3.97v1.22c.46-.6,1.81-1.49,3.53-1.49,1.5,0,2.58.55,3.06,1.89.62-.93,2.01-1.89,3.72-1.89,1.96,0,3.28,1,3.28,3.22v7.77h-3.97Z"/>
            <path class="cls-2" d="M288.35,73.58c3.13,0,5.53,2.26,5.53,6.04v.82h-7.23c.22.69.99,1.35,2.34,1.35.9,0,1.87-.33,2.4-.75l1.63,2.46c-1.06.91-2.95,1.33-4.54,1.33-3.33,0-5.93-2.11-5.93-5.64,0-3.11,2.36-5.61,5.8-5.61ZM286.61,77.91h3.5c-.11-.47-.48-1.29-1.76-1.29s-1.61.8-1.74,1.29Z"/>
            <path class="cls-2" d="M302.45,84.56v-5.92c0-1.11-.6-1.53-1.54-1.53s-1.37.47-1.7.84v6.61h-3.97v-10.72h3.97v1.22c.62-.71,1.79-1.49,3.66-1.49,2.47,0,3.55,1.51,3.55,3.37v7.61h-3.97Z"/>
          </g>
          <g>
            <path class="cls-2" d="M92.87,102.76v-13.82h1.71v13.82h-1.71Z"/>
            <path class="cls-2" d="M104.44,102.76v-6.55c0-1.76-.89-2.32-2.22-2.32-1.21,0-2.37.75-2.94,1.55v7.31h-1.54v-10.01h1.54v1.45c.7-.83,2.06-1.7,3.54-1.7,2.08,0,3.17,1.06,3.17,3.23v7.02h-1.54Z"/>
            <path class="cls-2" d="M117.84,102.76v-12.29h-4.34v-1.53h10.41v1.53h-4.36v12.29h-1.71Z"/>
            <path class="cls-2" d="M132.85,102.76v-6.59c0-1.76-.91-2.28-2.24-2.28-1.19,0-2.35.75-2.94,1.55v7.31h-1.54v-13.82h1.54v5.26c.7-.83,2.06-1.7,3.56-1.7,2.08,0,3.17,1.02,3.17,3.19v7.07h-1.54Z"/>
            <path class="cls-2" d="M141.8,92.51c3,0,4.77,2.36,4.77,5.37v.39h-8.05c.12,1.89,1.44,3.46,3.58,3.46,1.13,0,2.28-.46,3.07-1.26l.74,1.02c-.99.99-2.33,1.53-3.95,1.53-2.94,0-5.06-2.13-5.06-5.26,0-2.9,2.06-5.24,4.9-5.24ZM138.53,97.13h6.52c-.02-1.49-1.01-3.34-3.27-3.34-2.12,0-3.17,1.8-3.25,3.34Z"/>
            <path class="cls-2" d="M154.44,102.76v-13.82h6.11c2.39,0,3.85,1.45,3.85,3.52,0,1.74-1.15,2.9-2.41,3.17,1.46.23,2.68,1.74,2.68,3.4,0,2.22-1.46,3.73-3.97,3.73h-6.26ZM156.15,94.93h4.12c1.54,0,2.37-.95,2.37-2.22s-.82-2.24-2.37-2.24h-4.12v4.46ZM156.15,101.23h4.2c1.6,0,2.55-.91,2.55-2.38,0-1.26-.86-2.38-2.55-2.38h-4.2v4.77Z"/>
            <path class="cls-2" d="M174.04,102.76v-1.41c-.76.87-2.06,1.66-3.54,1.66-2.08,0-3.17-1.02-3.17-3.19v-7.07h1.54v6.59c0,1.76.88,2.28,2.22,2.28,1.21,0,2.37-.7,2.94-1.51v-7.36h1.54v10.01h-1.54Z"/>
            <path class="cls-2" d="M178.67,102.76v-13.82h1.54v13.82h-1.54Z"/>
            <path class="cls-2" d="M183.61,100.67v-6.55h-1.65v-1.37h1.65v-2.74h1.54v2.74h2.02v1.37h-2.02v6.22c0,.75.33,1.28,1.01,1.28.43,0,.84-.19,1.05-.41l.45,1.16c-.39.37-.95.64-1.85.64-1.46,0-2.2-.85-2.2-2.34Z"/>
            <path class="cls-2" d="M194.73,102.76v-13.82h8.99v1.53h-7.28v4.46h7.14v1.53h-7.14v4.77h7.28v1.53h-8.99Z"/>
            <path class="cls-2" d="M213.09,102.76v-6.55c0-1.76-.89-2.32-2.22-2.32-1.21,0-2.37.75-2.94,1.55v7.31h-1.54v-10.01h1.54v1.45c.7-.83,2.06-1.7,3.54-1.7,2.08,0,3.17,1.06,3.17,3.23v7.02h-1.54Z"/>
            <path class="cls-2" d="M220.37,102.76l-4.14-10.01h1.67l3.31,8.21,3.29-8.21h1.69l-4.14,10.01h-1.69Z"/>
            <path class="cls-2" d="M227.54,90.02c0-.58.47-1.04,1.03-1.04s1.05.46,1.05,1.04-.47,1.06-1.05,1.06-1.03-.48-1.03-1.06ZM227.8,102.76v-10.01h1.54v10.01h-1.54Z"/>
            <path class="cls-2" d="M232.44,102.76v-10.01h1.54v1.62c.8-1.06,1.95-1.82,3.31-1.82v1.6c-.18-.04-.37-.06-.62-.06-.95,0-2.24.79-2.7,1.6v7.09h-1.54Z"/>
            <path class="cls-2" d="M238.65,97.75c0-2.9,1.89-5.24,4.92-5.24s4.92,2.34,4.92,5.24-1.89,5.26-4.92,5.26-4.92-2.36-4.92-5.26ZM246.86,97.75c0-2.03-1.17-3.85-3.29-3.85s-3.31,1.82-3.31,3.85,1.19,3.87,3.31,3.87,3.29-1.82,3.29-3.87Z"/>
            <path class="cls-2" d="M257.71,102.76v-6.55c0-1.76-.89-2.32-2.22-2.32-1.21,0-2.37.75-2.94,1.55v7.31h-1.54v-10.01h1.54v1.45c.7-.83,2.06-1.7,3.54-1.7,2.08,0,3.17,1.06,3.17,3.23v7.02h-1.54Z"/>
            <path class="cls-2" d="M274.34,102.76v-6.8c0-1.26-.56-2.07-1.83-2.07-1.03,0-2.12.75-2.63,1.53v7.34h-1.54v-6.8c0-1.26-.53-2.07-1.83-2.07-1.01,0-2.08.75-2.61,1.55v7.31h-1.54v-10.01h1.54v1.45c.41-.64,1.75-1.7,3.21-1.7s2.39.83,2.67,1.87c.56-.91,1.89-1.87,3.33-1.87,1.81,0,2.78,1.02,2.78,3.03v7.23h-1.54Z"/>
            <path class="cls-2" d="M283.3,92.51c3,0,4.77,2.36,4.77,5.37v.39h-8.05c.12,1.89,1.44,3.46,3.58,3.46,1.13,0,2.28-.46,3.07-1.26l.74,1.02c-.99.99-2.33,1.53-3.95,1.53-2.94,0-5.06-2.13-5.06-5.26,0-2.9,2.06-5.24,4.9-5.24ZM280.03,97.13h6.52c-.02-1.49-1.01-3.34-3.27-3.34-2.12,0-3.17,1.8-3.25,3.34Z"/>
            <path class="cls-2" d="M297.28,102.76v-6.55c0-1.76-.89-2.32-2.22-2.32-1.21,0-2.37.75-2.94,1.55v7.31h-1.54v-10.01h1.54v1.45c.7-.83,2.06-1.7,3.54-1.7,2.08,0,3.17,1.06,3.17,3.23v7.02h-1.54Z"/>
            <path class="cls-2" d="M302.22,100.67v-6.55h-1.65v-1.37h1.65v-2.74h1.54v2.74h2.02v1.37h-2.02v6.22c0,.75.33,1.28,1.01,1.28.43,0,.84-.19,1.05-.41l.45,1.16c-.39.37-.95.64-1.85.64-1.46,0-2.2-.85-2.2-2.34Z"/>
          </g>
        </g>
      </g>
    </g>
  </g>
</svg>